<?xml version="1.0" standalone="no"?><!DOCTYPE svg PUBLIC "-//W3C//DTD SVG 1.1//EN" "http://www.w3.org/Graphics/SVG/1.1/DTD/svg11.dtd"><svg t="1748150977833" class="icon" viewBox="0 0 1024 1024" version="1.1" xmlns="http://www.w3.org/2000/svg" p-id="2686" xmlns:xlink="http://www.w3.org/1999/xlink" width="200" height="200"><path d="M612.5 775.6l-7.9 8c68.2 10.2 115 31.4 115 55.9 0 34.5-92.6 62.4-206.8 62.4s-206.9-28-206.9-62.4c0-24.7 47.6-46 116.6-56.1l-7.9-7.9c-131.3 12.1-226.5 47.7-226.5 89.8 0 52 145.4 94.2 324.7 94.2s324.6-42.2 324.6-94.2c0-41.9-94.4-77.4-224.9-89.7z m-79.9-490.2c-0.6 1.4-1.3 2.8-2.1 4 9 15.7 20.8 29.3 35.5 40.8 17.6-13.3 31-28.2 40.4-44.7h-73.8z" fill="#d81e06" p-id="2687"></path><path d="M836.6 388.6c0-179.3-145.4-324.7-324.7-324.7-179.3 0-324.7 145.4-324.7 324.7 0 89.3 36.1 170.1 94.4 228.8v0.1l231.2 231.1 229.7-231.2v-0.1c58.1-58.7 94.1-139.5 94.1-228.7zM407.6 222l37.7 11.3c-15.3 32.1-29.6 60-42.9 83.6 5.3-0.2 12.4-0.5 21.1-0.9 5.9-11.8 12.3-24.9 19-39.2l34.6 14.4c-18.6 34.9-38.2 70.2-58.8 105.7 14.5-1.8 29.9-3.9 46.3-6.1-1.8 10.6-3.1 22.9-3.7 36.8-31.9 2-59.3 5.7-82.4 11L368.1 404c10.2-10 22.6-27.8 37.1-53.3-11.2 0.8-22.2 1.7-32.8 2.8L362 319.8c10.6-12.5 25.8-45.1 45.6-97.8z m60.3 270.3c-38.8 6.3-71.9 12.2-99.3 17.5l-6.1-42.9c39.8-5.9 75.4-11.5 106.6-16.9-0.9 17.1-1.4 31.2-1.2 42.3z m163.7 31.2c-51.9-11-102.9-21.2-153.2-30.6l10.1-37.4c54.7 9.4 105.6 18.8 152.6 28.2l-9.5 39.8z m-122.3-89.8l9.5-33.4c46.8 8.2 82.6 14.7 107.5 19.6l-8.9 35.5c-34.9-7.5-70.9-14.7-108.1-21.7z m144.9-23.2c-35.5-9.8-65-22-88.2-36.5-24.3 15.1-52.6 27.6-84.9 37.4-5.5-12.7-11.7-24.8-18.7-36.5 27.6-6.9 51.7-15.5 72.3-25.7-9-9-17.3-18.8-24.8-29.4-7.1 9.6-14.5 18.8-22.1 27.6-8.2-8.8-17-17.5-26.4-26 27.6-31 48.2-64.3 61.9-99.9l38.9 7c-3.5 7.6-6.9 14.9-10.4 22.1h97.7v32.8c-12.7 24.5-29.6 46.6-50.9 66.2 20.4 9.4 44.1 16.6 71.1 21.8-4.9 11.9-10.2 25-15.5 39.1z" fill="#d81e06" p-id="2688"></path></svg>